<svg width="61" height="61" viewBox="0 0 61 61" fill="none" xmlns="http://www.w3.org/2000/svg">
<path d="M38.6333 58.9667H36.6C36.6 59.3443 36.7052 59.7144 36.9037 60.0357C37.1022 60.3569 37.3862 60.6165 37.724 60.7853C38.0617 60.9542 38.4398 61.0257 38.8159 60.9918C39.192 60.9579 39.5512 60.8199 39.8533 60.5933L38.6333 58.9667ZM46.7667 52.8667L47.9867 51.24C47.6347 50.976 47.2066 50.8333 46.7667 50.8333C46.3267 50.8333 45.8986 50.976 45.5467 51.24L46.7667 52.8667ZM54.9 58.9667L53.68 60.5933C53.9821 60.8199 54.3413 60.9579 54.7174 60.9918C55.0935 61.0257 55.4716 60.9542 55.8093 60.7853C56.1471 60.6165 56.4311 60.3569 56.6297 60.0357C56.8282 59.7144 56.9333 59.3443 56.9333 58.9667H54.9ZM46.7667 44.7333C44.0703 44.7333 41.4844 43.6622 39.5777 41.7556C37.6711 39.849 36.6 37.263 36.6 34.5667H32.5333C32.5333 38.3416 34.0329 41.9619 36.7022 44.6312C39.3714 47.3004 42.9918 48.8 46.7667 48.8V44.7333ZM56.9333 34.5667C56.9333 37.263 55.8622 39.849 53.9556 41.7556C52.049 43.6622 49.463 44.7333 46.7667 44.7333V48.8C50.5416 48.8 54.1619 47.3004 56.8312 44.6312C59.5004 41.9619 61 38.3416 61 34.5667H56.9333ZM46.7667 24.4C49.463 24.4 52.049 25.4711 53.9556 27.3777C55.8622 29.2844 56.9333 31.8703 56.9333 34.5667H61C61 30.7918 59.5004 27.1714 56.8312 24.5022C54.1619 21.8329 50.5416 20.3333 46.7667 20.3333V24.4ZM46.7667 20.3333C42.9918 20.3333 39.3714 21.8329 36.7022 24.5022C34.0329 27.1714 32.5333 30.7918 32.5333 34.5667H36.6C36.6 31.8703 37.6711 29.2844 39.5777 27.3777C41.4844 25.4711 44.0703 24.4 46.7667 24.4V20.3333ZM36.6 42.7V58.9667H40.6667V42.7H36.6ZM39.8533 60.5933L47.9867 54.4933L45.5467 51.24L37.4133 57.34L39.8533 60.5933ZM45.5467 54.4933L53.68 60.5933L56.12 57.34L47.9867 51.24L45.5467 54.4933ZM56.9333 58.9667V42.7H52.8667V58.9667H56.9333ZM61 20.3333V6.1H56.9333V20.3333H61ZM54.9 0H6.1V4.06667H54.9V0ZM0 6.1V54.9H4.06667V6.1H0ZM6.1 61H32.5333V56.9333H6.1V61ZM0 54.9C0 56.5178 0.642677 58.0694 1.78665 59.2134C2.93062 60.3573 4.48218 61 6.1 61V56.9333C5.56073 56.9333 5.04354 56.7191 4.66222 56.3378C4.28089 55.9565 4.06667 55.4393 4.06667 54.9H0ZM6.1 0C4.48218 0 2.93062 0.642677 1.78665 1.78665C0.642677 2.93062 0 4.48218 0 6.1H4.06667C4.06667 5.56073 4.28089 5.04354 4.66222 4.66222C5.04354 4.28089 5.56073 4.06667 6.1 4.06667V0ZM61 6.1C61 4.48218 60.3573 2.93062 59.2134 1.78665C58.0694 0.642677 56.5178 0 54.9 0V4.06667C55.4393 4.06667 55.9565 4.28089 56.3378 4.66222C56.7191 5.04354 56.9333 5.56073 56.9333 6.1H61ZM12.2 20.3333H32.5333V16.2667H12.2V20.3333ZM12.2 32.5333H24.4V28.4667H12.2V32.5333Z" fill="#0047FF"/>
</svg>
