<svg width="68" height="68" viewBox="0 0 68 68" fill="none" xmlns="http://www.w3.org/2000/svg">
<path d="M65 49.5H57.25M65 34H53.375M65 18.5H57.25M49.5 65V57.25M34 65V53.375M18.5 65V57.25M61.125 65L6.875 65C5.84729 65 4.86166 64.5917 4.13496 63.865C3.40825 63.1383 3 62.1527 3 61.125L3 41.75C3 40.7223 3.40825 39.7367 4.13496 39.01C4.86166 38.2833 5.84729 37.875 6.875 37.875H34C35.0277 37.875 36.0133 37.4667 36.74 36.74C37.4667 36.0133 37.875 35.0277 37.875 34V6.875C37.875 5.84729 38.2833 4.86166 39.01 4.13496C39.7367 3.40825 40.7223 3 41.75 3L61.125 3C62.1527 3 63.1383 3.40825 63.865 4.13496C64.5917 4.86166 65 5.84729 65 6.875L65 61.125C65 62.1527 64.5917 63.1383 63.865 63.865C63.1383 64.5917 62.1527 65 61.125 65Z" stroke="#0047FF" stroke-width="5" stroke-linecap="round" stroke-linejoin="round"/>
</svg>
