<svg width="70" height="62" viewBox="0 0 70 62" fill="none" xmlns="http://www.w3.org/2000/svg">
<path d="M44.7222 36.8125H52.5V25.1875H44.7222M58.3333 38.75C58.3333 39.7777 57.9236 40.7633 57.1943 41.49C56.465 42.2167 55.4758 42.625 54.4444 42.625H51.5278V48.4375H45.6944V42.625H42.7778C41.7464 42.625 40.7572 42.2167 40.0279 41.49C39.2986 40.7633 38.8889 39.7777 38.8889 38.75V23.25C38.8889 22.2223 39.2986 21.2367 40.0279 20.51C40.7572 19.7833 41.7464 19.375 42.7778 19.375H54.4444C55.4758 19.375 56.465 19.7833 57.1943 20.51C57.9236 21.2367 58.3333 22.2223 58.3333 23.25M31.1111 42.625H25.2778V34.875H17.5V42.625H11.6667V19.375H17.5V29.0625H25.2778V19.375H31.1111M62.2222 0H7.77778C3.46111 0 0 3.44875 0 7.75V54.25C0 56.3054 0.819442 58.2767 2.27806 59.7301C3.73667 61.1835 5.71498 62 7.77778 62H62.2222C64.285 62 66.2633 61.1835 67.7219 59.7301C69.1806 58.2767 70 56.3054 70 54.25V7.75C70 5.69457 69.1806 3.72333 67.7219 2.26992C66.2633 0.816515 64.285 0 62.2222 0Z" fill="#0047FF"/>
</svg>
