<svg width="375" height="812" viewBox="0 0 375 812" fill="none" xmlns="http://www.w3.org/2000/svg">
<path fill-rule="evenodd" clip-rule="evenodd" d="M-289.671 415.553C-314.918 374.148 -400.958 309.505 -357.397 288.193C-293.516 256.939 -214.925 387.944 -154.992 349.661C-103.219 316.589 -197.798 221.313 -168.318 167.414C-151.162 136.045 -98.4804 178.03 -62.8692 181.225C-28.5171 184.307 17.8699 159.291 39.6055 186.07C68.166 221.258 13.341 294.01 50.1419 320.459C96.5313 353.799 240.681 262.467 219.999 315.719C189.415 394.47 -2.92353 357.914 2.86291 442.196C8.78582 528.467 229.602 464.356 236.124 550.583C241.965 627.821 56.1368 454.513 8.40873 515.521C-40.9199 578.574 125.922 669.475 87.9665 739.962C59.2814 793.233 -1.36753 660.291 -50.636 625.173C-68.8816 612.168 -90.6737 589.38 -111.42 597.842C-168.288 621.038 -206.073 744.37 -256.334 709.073C-306.861 673.588 -208.45 594.732 -203.481 533.189C-201.848 512.96 -226.148 500.137 -238.143 483.765C-255.129 460.582 -274.708 440.091 -289.671 415.553Z" stroke="#0047FF"/>
<path fill-rule="evenodd" clip-rule="evenodd" d="M-295.388 402.618C-320.636 361.213 -406.676 296.57 -363.114 275.258C-299.234 244.004 -220.642 375.009 -160.709 336.726C-108.936 303.654 -203.515 208.378 -174.036 154.479C-156.879 123.11 -104.198 165.095 -68.5864 168.29C-34.2344 171.372 12.1526 146.356 33.8883 173.135C62.4487 208.322 7.62373 281.075 44.4247 307.524C90.8141 340.864 234.963 249.532 214.282 302.784C183.698 381.535 -8.64077 344.979 -2.85433 429.261C3.06858 515.532 223.885 451.42 230.406 537.648C236.248 614.886 50.4195 441.578 2.69148 502.586C-46.6371 565.639 120.205 656.54 82.2492 727.027C53.5642 780.298 -7.08478 647.356 -56.3533 612.238C-74.5988 599.233 -96.391 576.445 -117.138 584.907C-174.005 608.103 -211.791 731.435 -262.051 696.138C-312.578 660.653 -214.167 581.797 -209.198 520.254C-207.565 500.025 -231.865 487.202 -243.86 470.83C-260.846 447.647 -280.425 427.156 -295.388 402.618Z" stroke="#0047FF"/>
<path fill-rule="evenodd" clip-rule="evenodd" d="M-301.105 389.683C-326.353 348.278 -412.393 283.636 -368.832 262.323C-304.951 231.069 -226.359 362.075 -166.427 323.791C-114.653 290.72 -209.232 195.443 -179.753 141.544C-162.596 110.175 -109.915 152.16 -74.3037 155.355C-39.9516 158.438 6.43537 133.421 28.1711 160.2C56.7315 195.388 1.90649 268.14 38.7074 294.589C85.0968 327.929 229.246 236.597 208.565 289.85C177.98 368.6 -14.358 332.044 -8.57158 416.327C-2.64867 502.597 218.167 438.486 224.689 524.713C230.531 601.952 44.7023 428.644 -3.02576 489.651C-52.3544 552.704 114.487 643.605 76.532 714.092C47.8469 767.364 -12.802 634.421 -62.0705 599.303C-80.3161 586.298 -102.108 563.511 -122.855 571.973C-179.723 595.168 -217.508 718.5 -267.768 683.203C-318.296 647.718 -219.885 568.863 -214.916 507.32C-213.282 487.091 -237.583 474.267 -249.577 457.896C-266.564 434.712 -286.143 414.222 -301.105 389.683Z" stroke="#0047FF"/>
<path fill-rule="evenodd" clip-rule="evenodd" d="M-306.823 376.748C-332.07 335.343 -418.11 270.701 -374.549 249.388C-310.668 218.134 -232.076 349.14 -172.144 310.856C-120.371 277.785 -214.949 182.508 -185.47 128.609C-168.313 97.2399 -115.632 139.225 -80.0209 142.42C-45.6689 145.503 0.718122 120.486 22.4538 147.265C51.0142 182.453 -3.81076 255.205 32.9902 281.654C79.3796 314.994 223.529 223.662 202.847 276.915C172.263 355.665 -20.0753 319.109 -14.2888 403.392C-8.36592 489.662 212.45 425.551 218.972 511.778C224.814 589.017 38.985 415.708 -8.74301 476.716C-58.0716 539.769 108.77 630.67 70.8147 701.157C42.1297 754.429 -18.5193 621.486 -67.7878 586.368C-86.0333 573.363 -107.825 550.576 -128.572 559.038C-185.44 582.233 -223.225 705.565 -273.485 670.268C-324.013 634.783 -225.602 555.928 -220.633 494.385C-219 474.155 -243.3 461.332 -255.295 444.961C-272.281 421.777 -291.86 401.286 -306.823 376.748Z" stroke="#0047FF"/>
<path fill-rule="evenodd" clip-rule="evenodd" d="M-312.54 363.813C-337.787 322.408 -423.827 257.765 -380.266 236.453C-316.385 205.199 -237.794 336.205 -177.861 297.921C-126.088 264.85 -220.667 169.573 -191.187 115.674C-174.031 84.3049 -121.349 126.29 -85.7381 129.485C-51.3861 132.568 -4.99913 107.551 16.7366 134.33C45.297 169.518 -9.52801 242.27 27.273 268.719C73.6623 302.059 217.812 210.727 197.13 263.98C166.546 342.73 -25.7925 306.174 -20.0061 390.457C-14.0832 476.727 206.733 412.616 213.255 498.843C219.096 576.081 33.2678 402.773 -14.4603 463.781C-63.7888 526.834 103.053 617.735 65.0975 688.222C36.4124 741.493 -24.2365 608.551 -73.505 573.433C-91.7506 560.428 -113.543 537.64 -134.289 546.103C-191.157 569.298 -228.942 692.63 -279.203 657.333C-329.73 621.848 -231.319 542.993 -226.35 481.45C-224.717 461.22 -249.017 448.397 -261.012 432.026C-277.998 408.842 -297.577 388.351 -312.54 363.813Z" stroke="#0047FF"/>
<path fill-rule="evenodd" clip-rule="evenodd" d="M-318.257 350.878C-343.505 309.473 -429.545 244.83 -385.983 223.518C-322.103 192.264 -243.511 323.27 -183.578 284.986C-131.805 251.915 -226.384 156.638 -196.905 102.739C-179.748 71.3698 -127.067 113.355 -91.4554 116.55C-57.1034 119.633 -10.7164 94.6162 11.0193 121.395C39.5798 156.583 -15.2453 229.335 21.5557 255.784C67.9451 289.124 212.094 197.792 191.413 251.045C160.829 329.795 -31.5098 293.239 -25.7233 377.522C-19.8004 463.792 201.016 399.681 207.537 485.908C213.379 563.146 27.5506 389.838 -20.1775 450.846C-69.5061 513.899 97.3356 604.8 59.3802 675.287C30.6952 728.558 -29.9538 595.616 -79.2223 560.498C-97.4678 547.493 -119.26 524.705 -140.007 533.168C-196.874 556.363 -234.66 679.695 -284.92 644.398C-335.447 608.913 -237.036 530.058 -232.067 468.515C-230.434 448.285 -254.734 435.462 -266.729 419.091C-283.715 395.907 -303.294 375.416 -318.257 350.878Z" stroke="#0047FF"/>
<path fill-rule="evenodd" clip-rule="evenodd" d="M-323.974 337.943C-349.222 296.538 -435.262 231.895 -391.701 210.583C-327.82 179.329 -249.228 310.335 -189.295 272.051C-137.522 238.98 -232.101 143.703 -202.622 89.8038C-185.465 58.4348 -132.784 100.42 -97.1726 103.615C-62.8206 106.698 -16.4336 81.6811 5.30207 108.46C33.8625 143.648 -20.9625 216.4 15.8385 242.849C62.2279 276.189 206.377 184.857 185.696 238.109C155.111 316.86 -37.227 280.304 -31.4406 364.586C-25.5177 450.857 195.298 386.746 201.82 472.973C207.662 550.211 21.8333 376.903 -25.8947 437.911C-75.2233 500.964 91.6184 591.865 53.663 662.352C24.9779 715.623 -35.671 582.681 -84.9395 547.563C-103.185 534.558 -124.977 511.77 -145.724 520.233C-202.592 543.428 -240.377 666.76 -290.637 631.463C-341.165 595.978 -242.753 517.123 -237.785 455.58C-236.151 435.35 -260.452 422.527 -272.446 406.156C-289.433 382.972 -309.012 362.481 -323.974 337.943Z" stroke="#0047FF"/>
</svg>
