<svg width="375" height="762" viewBox="0 0 375 762" fill="none" xmlns="http://www.w3.org/2000/svg">
<path fill-rule="evenodd" clip-rule="evenodd" d="M465.194 303.902C503.682 333.405 607.253 362.641 574.318 398.238C526.021 450.439 405.448 356.625 363.37 413.957C327.021 463.484 449.61 518.208 441.569 579.113C436.889 614.56 372.606 594.416 338.242 604.288C305.092 613.81 270.859 653.881 240.924 636.751C201.59 614.242 226.465 526.607 182.599 515.221C127.304 500.869 25.829 638.067 25.8988 580.94C26.002 496.459 218.571 461.14 182.758 384.625C146.101 306.306 -36.6976 445.786 -73.898 367.723C-107.22 297.798 128.63 392.364 151.125 318.243C174.374 241.637 -14.0292 217.073 -4.06935 137.638C3.45787 77.6051 107.997 179.701 166.619 194.672C188.328 200.216 216.875 213.604 233.17 198.225C277.834 156.07 268.565 27.413 328.176 42.1931C388.104 57.0519 324.783 166.109 342.359 225.297C348.136 244.753 375.427 247.943 392.521 258.882C416.729 274.373 442.384 286.417 465.194 303.902Z" stroke="white"/>
<path fill-rule="evenodd" clip-rule="evenodd" d="M475.194 313.902C513.682 343.405 617.253 372.641 584.318 408.238C536.021 460.439 415.448 366.625 373.37 423.957C337.021 473.484 459.61 528.208 451.569 589.113C446.889 624.56 382.606 604.416 348.242 614.288C315.092 623.81 280.859 663.881 250.924 646.751C211.59 624.242 236.465 536.607 192.599 525.221C137.304 510.869 35.829 648.067 35.8988 590.94C36.002 506.459 228.571 471.14 192.758 394.625C156.101 316.306 -26.6976 455.786 -63.898 377.723C-97.2204 307.798 138.63 402.364 161.125 328.243C184.374 251.637 -4.02918 227.073 5.93065 147.638C13.4579 87.6051 117.997 189.701 176.619 204.672C198.328 210.216 226.875 223.604 243.17 208.225C287.834 166.07 278.565 37.413 338.176 52.1931C398.104 67.0519 334.783 176.109 352.359 235.297C358.136 254.753 385.427 257.943 402.521 268.882C426.729 284.373 452.384 296.417 475.194 313.902Z" stroke="white"/>
<path fill-rule="evenodd" clip-rule="evenodd" d="M485.194 323.902C523.682 353.405 627.253 382.641 594.318 418.238C546.021 470.439 425.448 376.625 383.37 433.957C347.021 483.484 469.61 538.208 461.569 599.113C456.889 634.56 392.606 614.416 358.242 624.288C325.092 633.81 290.859 673.881 260.924 656.751C221.59 634.242 246.465 546.607 202.599 535.221C147.304 520.869 45.829 658.067 45.8988 600.94C46.002 516.459 238.571 481.14 202.758 404.625C166.101 326.306 -16.6976 465.786 -53.898 387.723C-87.2204 317.798 148.63 412.364 171.125 338.243C194.374 261.637 5.97082 237.073 15.9307 157.638C23.4579 97.6051 127.997 199.701 186.619 214.672C208.328 220.216 236.875 233.604 253.17 218.225C297.834 176.07 288.565 47.413 348.176 62.1931C408.104 77.0519 344.783 186.109 362.359 245.297C368.136 264.753 395.427 267.943 412.521 278.882C436.729 294.373 462.384 306.417 485.194 323.902Z" stroke="white"/>
<path fill-rule="evenodd" clip-rule="evenodd" d="M495.194 333.902C533.682 363.405 637.253 392.641 604.318 428.238C556.021 480.439 435.448 386.625 393.37 443.957C357.021 493.484 479.61 548.208 471.569 609.113C466.889 644.56 402.606 624.416 368.242 634.288C335.092 643.81 300.859 683.881 270.924 666.751C231.59 644.242 256.465 556.607 212.599 545.221C157.304 530.869 55.829 668.067 55.8988 610.94C56.002 526.459 248.571 491.14 212.758 414.625C176.101 336.306 -6.69759 475.786 -43.898 397.723C-77.2204 327.798 158.63 422.364 181.125 348.243C204.374 271.637 15.9708 247.073 25.9307 167.638C33.4579 107.605 137.997 209.701 196.619 224.672C218.328 230.216 246.875 243.604 263.17 228.225C307.834 186.07 298.565 57.413 358.176 72.1931C418.104 87.0519 354.783 196.109 372.359 255.297C378.136 274.753 405.427 277.943 422.521 288.882C446.729 304.373 472.384 316.417 495.194 333.902Z" stroke="white"/>
<path fill-rule="evenodd" clip-rule="evenodd" d="M505.194 343.902C543.682 373.405 647.253 402.641 614.318 438.238C566.021 490.439 445.448 396.625 403.37 453.957C367.021 503.484 489.61 558.208 481.569 619.113C476.889 654.56 412.606 634.416 378.242 644.288C345.092 653.81 310.859 693.881 280.924 676.751C241.59 654.242 266.465 566.607 222.599 555.221C167.304 540.869 65.829 678.067 65.8988 620.94C66.002 536.459 258.571 501.14 222.758 424.625C186.101 346.306 3.30241 485.786 -33.898 407.723C-67.2204 337.798 168.63 432.364 191.125 358.243C214.374 281.637 25.9708 257.073 35.9307 177.638C43.4579 117.605 147.997 219.701 206.619 234.672C228.328 240.216 256.875 253.604 273.17 238.225C317.834 196.07 308.565 67.413 368.176 82.1931C428.104 97.0519 364.783 206.109 382.359 265.297C388.136 284.753 415.427 287.943 432.521 298.882C456.729 314.373 482.384 326.417 505.194 343.902Z" stroke="white"/>
<path fill-rule="evenodd" clip-rule="evenodd" d="M515.194 353.902C553.682 383.405 657.253 412.641 624.318 448.238C576.021 500.439 455.448 406.625 413.37 463.957C377.021 513.484 499.61 568.208 491.569 629.113C486.889 664.56 422.606 644.416 388.242 654.288C355.092 663.81 320.859 703.881 290.924 686.751C251.59 664.242 276.465 576.607 232.599 565.221C177.304 550.869 75.829 688.067 75.8988 630.94C76.002 546.459 268.571 511.14 232.758 434.625C196.101 356.306 13.3024 495.786 -23.898 417.723C-57.2204 347.798 178.63 442.364 201.125 368.243C224.374 291.637 35.9708 267.073 45.9307 187.638C53.4579 127.605 157.997 229.701 216.619 244.672C238.328 250.216 266.875 263.604 283.17 248.225C327.834 206.07 318.565 77.413 378.176 92.1931C438.104 107.052 374.783 216.109 392.359 275.297C398.136 294.753 425.427 297.943 442.521 308.882C466.729 324.373 492.384 336.417 515.194 353.902Z" stroke="white"/>
<path fill-rule="evenodd" clip-rule="evenodd" d="M525.194 363.902C563.682 393.405 667.253 422.641 634.318 458.238C586.021 510.439 465.448 416.625 423.37 473.957C387.021 523.484 509.61 578.208 501.569 639.113C496.889 674.56 432.606 654.416 398.242 664.288C365.092 673.81 330.859 713.881 300.924 696.751C261.59 674.242 286.465 586.607 242.599 575.221C187.304 560.869 85.829 698.067 85.8988 640.94C86.002 556.459 278.571 521.14 242.758 444.625C206.101 366.306 23.3024 505.786 -13.898 427.723C-47.2204 357.798 188.63 452.364 211.125 378.243C234.374 301.637 45.9708 277.073 55.9307 197.638C63.4579 137.605 167.997 239.701 226.619 254.672C248.328 260.216 276.875 273.604 293.17 258.225C337.834 216.07 328.565 87.413 388.176 102.193C448.104 117.052 384.783 226.109 402.359 285.297C408.136 304.753 435.427 307.943 452.521 318.882C476.729 334.373 502.384 346.417 525.194 363.902Z" stroke="white"/>
</svg>
