<svg width="375" height="547" viewBox="0 0 375 547" fill="none" xmlns="http://www.w3.org/2000/svg">
<path fill-rule="evenodd" clip-rule="evenodd" d="M206.194 303.902C244.682 333.405 348.253 362.641 315.318 398.238C267.021 450.439 146.448 356.625 104.37 413.957C68.0211 463.484 190.61 518.208 182.569 579.113C177.889 614.56 113.606 594.416 79.2416 604.288C46.0922 613.81 11.8593 653.881 -18.0759 636.751C-57.4103 614.242 -32.5351 526.607 -76.4011 515.221C-131.696 500.869 -233.171 638.067 -233.101 580.94C-232.998 496.459 -40.4287 461.14 -76.2416 384.625C-112.899 306.306 -295.698 445.786 -332.898 367.723C-366.22 297.798 -130.37 392.364 -107.875 318.243C-84.6261 241.637 -273.029 217.073 -263.069 137.638C-255.542 77.6051 -151.003 179.701 -92.3815 194.672C-70.6721 200.216 -42.1249 213.604 -25.8302 198.225C18.8344 156.07 9.56457 27.413 69.1758 42.1931C129.104 57.0519 65.7829 166.109 83.3589 225.297C89.1362 244.753 116.427 247.943 133.521 258.882C157.729 274.373 183.384 286.417 206.194 303.902Z" stroke="black"/>
<path fill-rule="evenodd" clip-rule="evenodd" d="M216.194 313.902C254.682 343.405 358.253 372.641 325.318 408.238C277.021 460.439 156.448 366.625 114.37 423.957C78.0211 473.484 200.61 528.208 192.569 589.113C187.889 624.56 123.606 604.416 89.2416 614.288C56.0922 623.81 21.8593 663.881 -8.07586 646.751C-47.4103 624.242 -22.5351 536.607 -66.4011 525.221C-121.696 510.869 -223.171 648.067 -223.101 590.94C-222.998 506.459 -30.4287 471.14 -66.2416 394.625C-102.899 316.306 -285.698 455.786 -322.898 377.723C-356.22 307.798 -120.37 402.364 -97.8753 328.243C-74.6261 251.637 -263.029 227.073 -253.069 147.638C-245.542 87.6051 -141.003 189.701 -82.3815 204.672C-60.6721 210.216 -32.1249 223.604 -15.8302 208.225C28.8344 166.07 19.5646 37.413 79.1758 52.1931C139.104 67.0519 75.7829 176.109 93.3589 235.297C99.1362 254.753 126.427 257.943 143.521 268.882C167.729 284.373 193.384 296.417 216.194 313.902Z" stroke="black"/>
<path fill-rule="evenodd" clip-rule="evenodd" d="M226.194 323.902C264.682 353.405 368.253 382.641 335.318 418.238C287.021 470.439 166.448 376.625 124.37 433.957C88.0211 483.484 210.61 538.208 202.569 599.113C197.889 634.56 133.606 614.416 99.2416 624.288C66.0922 633.81 31.8593 673.881 1.92414 656.751C-37.4103 634.242 -12.5351 546.607 -56.4011 535.221C-111.696 520.869 -213.171 658.067 -213.101 600.94C-212.998 516.459 -20.4287 481.14 -56.2416 404.625C-92.8991 326.306 -275.698 465.786 -312.898 387.723C-346.22 317.798 -110.37 412.364 -87.8753 338.243C-64.6261 261.637 -253.029 237.073 -243.069 157.638C-235.542 97.6051 -131.003 199.701 -72.3815 214.672C-50.6721 220.216 -22.1249 233.604 -5.83016 218.225C38.8344 176.07 29.5646 47.413 89.1758 62.1931C149.104 77.0519 85.7829 186.109 103.359 245.297C109.136 264.753 136.427 267.943 153.521 278.882C177.729 294.373 203.384 306.417 226.194 323.902Z" stroke="black"/>
<path fill-rule="evenodd" clip-rule="evenodd" d="M236.194 333.902C274.682 363.405 378.253 392.641 345.318 428.238C297.021 480.439 176.448 386.625 134.37 443.957C98.0211 493.484 220.61 548.208 212.569 609.113C207.889 644.56 143.606 624.416 109.242 634.288C76.0922 643.81 41.8593 683.881 11.9241 666.751C-27.4103 644.242 -2.53513 556.607 -46.4011 545.221C-101.696 530.869 -203.171 668.067 -203.101 610.94C-202.998 526.459 -10.4287 491.14 -46.2416 414.625C-82.8991 336.306 -265.698 475.786 -302.898 397.723C-336.22 327.798 -100.37 422.364 -77.8753 348.243C-54.6261 271.637 -243.029 247.073 -233.069 167.638C-225.542 107.605 -121.003 209.701 -62.3815 224.672C-40.6721 230.216 -12.1249 243.604 4.16984 228.225C48.8344 186.07 39.5646 57.413 99.1758 72.1931C159.104 87.0519 95.7829 196.109 113.359 255.297C119.136 274.753 146.427 277.943 163.521 288.882C187.729 304.373 213.384 316.417 236.194 333.902Z" stroke="black"/>
<path fill-rule="evenodd" clip-rule="evenodd" d="M246.194 343.902C284.682 373.405 388.253 402.641 355.318 438.238C307.021 490.439 186.448 396.625 144.37 453.957C108.021 503.484 230.61 558.208 222.569 619.113C217.889 654.56 153.606 634.416 119.242 644.288C86.0922 653.81 51.8593 693.881 21.9241 676.751C-17.4103 654.242 7.46487 566.607 -36.4011 555.221C-91.6963 540.869 -193.171 678.067 -193.101 620.94C-192.998 536.459 -0.428653 501.14 -36.2416 424.625C-72.8991 346.306 -255.698 485.786 -292.898 407.723C-326.22 337.798 -90.3703 432.364 -67.8753 358.243C-44.6261 281.637 -233.029 257.073 -223.069 177.638C-215.542 117.605 -111.003 219.701 -52.3815 234.672C-30.6721 240.216 -2.12487 253.604 14.1698 238.225C58.8344 196.07 49.5646 67.413 109.176 82.1931C169.104 97.0519 105.783 206.109 123.359 265.297C129.136 284.753 156.427 287.943 173.521 298.882C197.729 314.373 223.384 326.417 246.194 343.902Z" stroke="black"/>
<path fill-rule="evenodd" clip-rule="evenodd" d="M256.194 353.902C294.682 383.405 398.253 412.641 365.318 448.238C317.021 500.439 196.448 406.625 154.37 463.957C118.021 513.484 240.61 568.208 232.569 629.113C227.889 664.56 163.606 644.416 129.242 654.288C96.0922 663.81 61.8593 703.881 31.9241 686.751C-7.41026 664.242 17.4649 576.607 -26.4011 565.221C-81.6963 550.869 -183.171 688.067 -183.101 630.94C-182.998 546.459 9.57135 511.14 -26.2416 434.625C-62.8991 356.306 -245.698 495.786 -282.898 417.723C-316.22 347.798 -80.3703 442.364 -57.8753 368.243C-34.6261 291.637 -223.029 267.073 -213.069 187.638C-205.542 127.605 -101.003 229.701 -42.3815 244.672C-20.6721 250.216 7.87513 263.604 24.1698 248.225C68.8344 206.07 59.5646 77.413 119.176 92.1931C179.104 107.052 115.783 216.109 133.359 275.297C139.136 294.753 166.427 297.943 183.521 308.882C207.729 324.373 233.384 336.417 256.194 353.902Z" stroke="black"/>
<path fill-rule="evenodd" clip-rule="evenodd" d="M266.194 363.902C304.682 393.405 408.253 422.641 375.318 458.238C327.021 510.439 206.448 416.625 164.37 473.957C128.021 523.484 250.61 578.208 242.569 639.113C237.889 674.56 173.606 654.416 139.242 664.288C106.092 673.81 71.8593 713.881 41.9241 696.751C2.58974 674.242 27.4649 586.607 -16.4011 575.221C-71.6963 560.869 -173.171 698.067 -173.101 640.94C-172.998 556.459 19.5713 521.14 -16.2416 444.625C-52.8991 366.306 -235.698 505.786 -272.898 427.723C-306.22 357.798 -70.3703 452.364 -47.8753 378.243C-24.6261 301.637 -213.029 277.073 -203.069 197.638C-195.542 137.605 -91.0033 239.701 -32.3815 254.672C-10.6721 260.216 17.8751 273.604 34.1698 258.225C78.8344 216.07 69.5646 87.413 129.176 102.193C189.104 117.052 125.783 226.109 143.359 285.297C149.136 304.753 176.427 307.943 193.521 318.882C217.729 334.373 243.384 346.417 266.194 363.902Z" stroke="black"/>
</svg>
