<svg width="13" height="10" viewBox="0 0 13 10" fill="none" xmlns="http://www.w3.org/2000/svg">
<path d="M4.01314 8.08144L1.32065 5.32189C1.17557 5.17319 0.978797 5.08966 0.77362 5.08966C0.568443 5.08966 0.37167 5.17319 0.226588 5.32189C0.0815062 5.47058 0 5.67226 0 5.88255C0 5.98667 0.0200104 6.08977 0.0588885 6.18597C0.0977666 6.28217 0.154751 6.36958 0.226588 6.4432L3.46999 9.76739C3.7726 10.0775 4.26144 10.0775 4.56405 9.76739L12.7734 1.35355C12.9185 1.20485 13 1.00318 13 0.79289C13 0.582602 12.9185 0.380928 12.7734 0.232232C12.6283 0.0835365 12.4316 0 12.2264 0C12.0212 0 11.8244 0.0835365 11.6793 0.232232L4.01314 8.08144Z" fill="#0047FF"/>
</svg>
