<svg width="13" height="13" viewBox="0 0 13 13" fill="none" xmlns="http://www.w3.org/2000/svg">
<path d="M1.44444 11.5556H2.47361L9.53333 4.49583L8.50416 3.46667L1.44444 10.5264V11.5556ZM0 13V9.93056L9.53333 0.415278C9.67777 0.28287 9.83739 0.180556 10.0122 0.108333C10.1869 0.0361112 10.3704 0 10.5625 0C10.7546 0 10.9412 0.0361112 11.1222 0.108333C11.3033 0.180556 11.4597 0.288889 11.5917 0.433333L12.5847 1.44444C12.7292 1.57685 12.8346 1.73333 12.9011 1.91389C12.9675 2.09444 13.0005 2.275 13 2.45556C13 2.64815 12.967 2.83183 12.9011 3.00661C12.8351 3.18139 12.7296 3.34076 12.5847 3.48472L3.06944 13H0ZM9.00972 3.99028L8.50416 3.46667L9.53333 4.49583L9.00972 3.99028Z" fill="#0047FF"/>
</svg>
