<svg width="65" height="13" viewBox="0 0 65 13" fill="none" xmlns="http://www.w3.org/2000/svg">
<path d="M0.032 12L2.272 0.799999H7.248C8.752 0.799999 9.90933 1.12533 10.72 1.776C11.5413 2.42667 11.952 3.33867 11.952 4.512C11.952 5.45067 11.7173 6.27733 11.248 6.992C10.7893 7.70667 10.1333 8.26133 9.28 8.656C8.43733 9.05067 7.44 9.248 6.288 9.248H2.672L4.688 7.6L3.808 12H0.032ZM4.592 8.048L3.264 6.336H6.48C7.00267 6.336 7.408 6.208 7.696 5.952C7.984 5.68533 8.128 5.31733 8.128 4.848C8.128 4.44267 8 4.15467 7.744 3.984C7.49867 3.80267 7.15733 3.712 6.72 3.712H3.792L5.808 1.952L4.592 8.048ZM11.7664 12L14.0064 0.799999H19.0304C20.513 0.799999 21.6597 1.12533 22.4704 1.776C23.281 2.416 23.6864 3.31733 23.6864 4.48C23.6864 5.41867 23.4517 6.24 22.9824 6.944C22.5237 7.648 21.8677 8.19733 21.0144 8.592C20.1717 8.98667 19.1744 9.184 18.0224 9.184H14.4064L16.4224 7.6L15.5424 12H11.7664ZM18.6144 12L16.3104 7.92H20.1984L22.5344 12H18.6144ZM16.3264 8.048L14.9984 6.336H18.2144C18.737 6.336 19.1424 6.208 19.4304 5.952C19.7184 5.68533 19.8624 5.31733 19.8624 4.848C19.8624 4.44267 19.7344 4.15467 19.4784 3.984C19.233 3.80267 18.8917 3.712 18.4544 3.712H15.5264L17.5424 1.952L16.3264 8.048ZM29.9923 12.256C28.8296 12.256 27.8216 12.0427 26.9683 11.616C26.1256 11.1893 25.4696 10.6027 25.0003 9.856C24.5416 9.09867 24.3123 8.22933 24.3123 7.248C24.3123 6.256 24.4829 5.35467 24.8243 4.544C25.1763 3.72267 25.6669 3.01333 26.2963 2.416C26.9256 1.81867 27.6723 1.36 28.5363 1.04C29.4003 0.709333 30.3443 0.544 31.3683 0.544C32.5309 0.544 33.5336 0.757333 34.3763 1.184C35.2296 1.61067 35.8856 2.20267 36.3443 2.96C36.8136 3.70667 37.0483 4.57067 37.0483 5.552C37.0483 6.544 36.8723 7.45067 36.5203 8.272C36.1789 9.08267 35.6936 9.78667 35.0643 10.384C34.4349 10.9813 33.6883 11.4453 32.8243 11.776C31.9603 12.096 31.0163 12.256 29.9923 12.256ZM30.3123 9.2C30.7816 9.2 31.1923 9.10933 31.5443 8.928C31.9069 8.74667 32.2163 8.496 32.4722 8.176C32.7283 7.856 32.9203 7.49333 33.0483 7.088C33.1763 6.672 33.2403 6.23467 33.2403 5.776C33.2403 5.33867 33.1496 4.96 32.9683 4.64C32.7976 4.30933 32.5469 4.05333 32.2163 3.872C31.8963 3.69067 31.5069 3.6 31.0483 3.6C30.5896 3.6 30.1789 3.69067 29.8163 3.872C29.4536 4.05333 29.1443 4.304 28.8883 4.624C28.6323 4.944 28.4403 5.312 28.3123 5.728C28.1843 6.13333 28.1203 6.56533 28.1203 7.024C28.1203 7.45067 28.2056 7.82933 28.3763 8.16C28.5576 8.49067 28.8083 8.74667 29.1283 8.928C29.4589 9.10933 29.8536 9.2 30.3123 9.2ZM38.1825 12L40.1505 2.16L41.4625 3.648H37.9265L38.5025 0.799999H44.1985L41.9585 12H38.1825ZM47.366 12.256C46.566 12.256 45.7927 12.16 45.046 11.968C44.31 11.776 43.6433 11.4827 43.046 11.088L44.758 8.464C45.1953 8.74133 45.6647 8.94933 46.166 9.088C46.678 9.216 47.1633 9.28 47.622 9.28C47.974 9.28 48.2673 9.24267 48.502 9.168C48.7473 9.09333 48.9287 8.98667 49.046 8.848C49.174 8.69867 49.238 8.52267 49.238 8.32C49.238 8.096 49.1473 7.93067 48.966 7.824C48.7847 7.70667 48.502 7.648 48.118 7.648H46.566L47.03 5.328L50.438 2.384L50.598 3.648H45.014L45.59 0.799999H53.942L53.478 3.12L50.07 6.064L48.39 5.072H49.222C50.0007 5.072 50.6727 5.19467 51.238 5.44C51.814 5.68533 52.2567 6.032 52.566 6.48C52.886 6.928 53.046 7.456 53.046 8.064C53.046 8.864 52.7953 9.584 52.294 10.224C51.8033 10.8533 51.126 11.3493 50.262 11.712C49.4087 12.0747 48.4433 12.256 47.366 12.256ZM53.4501 10.08L53.9301 7.68L59.9301 0.799999H63.9301L58.1061 7.68L56.3301 7.152H65.0021L64.4101 10.08H53.4501ZM58.8741 12L59.2581 10.08L60.0261 7.152L60.3621 5.44H63.8501L62.5381 12H58.8741Z" fill="#202020"/>
</svg>
