<svg width="77" height="13" viewBox="0 0 77 13" fill="none" xmlns="http://www.w3.org/2000/svg">
<path d="M7.248 0.799999C8.74133 0.799999 9.89867 1.12533 10.72 1.776C11.5413 2.42667 11.952 3.33867 11.952 4.512C11.952 5.45067 11.7173 6.27733 11.248 6.992C10.7893 7.70667 10.128 8.26133 9.264 8.656C8.41067 9.05067 7.41867 9.248 6.288 9.248H4.352L3.808 12H0.032L2.272 0.799999H7.248ZM6.48 6.336C7.00267 6.336 7.408 6.208 7.696 5.952C7.984 5.68533 8.128 5.31733 8.128 4.848C8.128 4.09067 7.65867 3.712 6.72 3.712H5.456L4.928 6.336H6.48ZM23.6864 4.48C23.6864 5.472 23.4197 6.34133 22.8864 7.088C22.3637 7.824 21.6224 8.37333 20.6624 8.736L22.5344 12H18.6144L17.0304 9.184H16.1024L15.5424 12H11.7664L14.0064 0.799999H19.0304C20.5024 0.799999 21.6437 1.12533 22.4544 1.776C23.2757 2.416 23.6864 3.31733 23.6864 4.48ZM19.8624 4.848C19.8624 4.09067 19.393 3.712 18.4544 3.712H17.1904L16.6624 6.336H18.2144C18.737 6.336 19.1424 6.208 19.4304 5.952C19.7184 5.68533 19.8624 5.31733 19.8624 4.848ZM29.9923 12.256C28.8509 12.256 27.8483 12.048 26.9843 11.632C26.1309 11.2053 25.4696 10.6133 25.0003 9.856C24.5416 9.09867 24.3123 8.22933 24.3123 7.248C24.3123 5.94667 24.6109 4.78933 25.2083 3.776C25.8163 2.752 26.6536 1.95733 27.7203 1.392C28.7976 0.826666 30.0136 0.544 31.3683 0.544C32.5096 0.544 33.5069 0.757333 34.3603 1.184C35.2243 1.6 35.8856 2.18667 36.3443 2.944C36.8136 3.70133 37.0483 4.57067 37.0483 5.552C37.0483 6.85333 36.7443 8.016 36.1363 9.04C35.5389 10.0533 34.7016 10.8427 33.6243 11.408C32.5576 11.9733 31.3469 12.256 29.9923 12.256ZM30.3123 9.2C30.9096 9.2 31.4269 9.04533 31.8643 8.736C32.3123 8.42667 32.6536 8.01067 32.8883 7.488C33.1229 6.96533 33.2403 6.39467 33.2403 5.776C33.2403 5.11467 33.0429 4.58667 32.6483 4.192C32.2643 3.79733 31.7309 3.6 31.0483 3.6C30.4509 3.6 29.9283 3.75467 29.4803 4.064C29.0429 4.37333 28.7069 4.78933 28.4723 5.312C28.2376 5.83467 28.1203 6.40533 28.1203 7.024C28.1203 7.68533 28.3123 8.21333 28.6963 8.608C29.0909 9.00267 29.6296 9.2 30.3123 9.2ZM44.1985 0.799999L41.9585 12H38.1825L39.8465 3.648H37.9265L38.5025 0.799999H44.1985ZM48.662 12.256C47.7873 12.256 47.0247 12.0853 46.374 11.744C45.7233 11.392 45.2167 10.8907 44.854 10.24C44.502 9.57867 44.326 8.78933 44.326 7.872C44.326 6.48533 44.5873 5.23733 45.11 4.128C45.6327 3.008 46.3527 2.13333 47.27 1.504C48.198 0.864 49.238 0.544 50.39 0.544C51.2647 0.544 52.0273 0.72 52.678 1.072C53.3287 1.41333 53.83 1.91467 54.182 2.576C54.5447 3.22667 54.726 4.01067 54.726 4.928C54.726 6.31467 54.4647 7.568 53.942 8.688C53.4193 9.79733 52.694 10.672 51.766 11.312C50.8487 11.9413 49.814 12.256 48.662 12.256ZM49.046 9.232C49.4513 9.232 49.798 8.99733 50.086 8.528C50.374 8.05867 50.5873 7.49867 50.726 6.848C50.8753 6.18667 50.95 5.57867 50.95 5.024C50.95 4.05333 50.6353 3.568 50.006 3.568C49.6007 3.568 49.254 3.80267 48.966 4.272C48.678 4.74133 48.4593 5.30667 48.31 5.968C48.1713 6.61867 48.102 7.22133 48.102 7.776C48.102 8.74667 48.4167 9.232 49.046 9.232ZM59.7401 12.256C58.8655 12.256 58.1028 12.0853 57.4521 11.744C56.8015 11.392 56.2948 10.8907 55.9321 10.24C55.5801 9.57867 55.4041 8.78933 55.4041 7.872C55.4041 6.48533 55.6655 5.23733 56.1881 4.128C56.7108 3.008 57.4308 2.13333 58.3481 1.504C59.2761 0.864 60.3161 0.544 61.4681 0.544C62.3428 0.544 63.1055 0.72 63.7561 1.072C64.4068 1.41333 64.9081 1.91467 65.2601 2.576C65.6228 3.22667 65.8041 4.01067 65.8041 4.928C65.8041 6.31467 65.5428 7.568 65.0201 8.688C64.4975 9.79733 63.7721 10.672 62.8441 11.312C61.9268 11.9413 60.8921 12.256 59.7401 12.256ZM60.1241 9.232C60.5295 9.232 60.8761 8.99733 61.1641 8.528C61.4521 8.05867 61.6655 7.49867 61.8041 6.848C61.9535 6.18667 62.0281 5.57867 62.0281 5.024C62.0281 4.05333 61.7135 3.568 61.0841 3.568C60.6788 3.568 60.3321 3.80267 60.0441 4.272C59.7561 4.74133 59.5375 5.30667 59.3881 5.968C59.2495 6.61867 59.1801 7.22133 59.1801 7.776C59.1801 8.74667 59.4948 9.232 60.1241 9.232ZM70.8183 12.256C69.9436 12.256 69.1809 12.0853 68.5303 11.744C67.8796 11.392 67.3729 10.8907 67.0103 10.24C66.6583 9.57867 66.4823 8.78933 66.4823 7.872C66.4823 6.48533 66.7436 5.23733 67.2663 4.128C67.7889 3.008 68.5089 2.13333 69.4263 1.504C70.3543 0.864 71.3943 0.544 72.5463 0.544C73.4209 0.544 74.1836 0.72 74.8343 1.072C75.4849 1.41333 75.9863 1.91467 76.3383 2.576C76.7009 3.22667 76.8823 4.01067 76.8823 4.928C76.8823 6.31467 76.6209 7.568 76.0983 8.688C75.5756 9.79733 74.8503 10.672 73.9223 11.312C73.0049 11.9413 71.9703 12.256 70.8183 12.256ZM71.2023 9.232C71.6076 9.232 71.9543 8.99733 72.2423 8.528C72.5303 8.05867 72.7436 7.49867 72.8823 6.848C73.0316 6.18667 73.1063 5.57867 73.1063 5.024C73.1063 4.05333 72.7916 3.568 72.1623 3.568C71.7569 3.568 71.4103 3.80267 71.1223 4.272C70.8343 4.74133 70.6156 5.30667 70.4663 5.968C70.3276 6.61867 70.2583 7.22133 70.2583 7.776C70.2583 8.74667 70.5729 9.232 71.2023 9.232Z" fill="url(#paint0_linear_36_286)"/>
<defs>
<linearGradient id="paint0_linear_36_286" x1="38.5" y1="-4" x2="38.5" y2="16" gradientUnits="userSpaceOnUse">
<stop stop-color="#202020"/>
<stop offset="1" stop-color="#111111"/>
</linearGradient>
</defs>
</svg>
